<?xml version="1.0" encoding="UTF-8" standalone="no"?>
<!-- Created with Inkscape (http://www.inkscape.org/) -->

<svg
   xmlns:dc="http://purl.org/dc/elements/1.1/"
   xmlns:cc="http://creativecommons.org/ns#"
   xmlns:rdf="http://www.w3.org/1999/02/22-rdf-syntax-ns#"
   xmlns:svg="http://www.w3.org/2000/svg"
   xmlns="http://www.w3.org/2000/svg"
   xmlns:xlink="http://www.w3.org/1999/xlink"
   xmlns:sodipodi="http://sodipodi.sourceforge.net/DTD/sodipodi-0.dtd"
   xmlns:inkscape="http://www.inkscape.org/namespaces/inkscape"
   sodipodi:docname="phase_function.svg"
   inkscape:version="0.48.4 r9939"
   version="1.1"
   id="svg2"
   height="234.33585"
   width="295.646">
  <sodipodi:namedview
     id="base"
     pagecolor="#ffffff"
     bordercolor="#666666"
     borderopacity="1.0"
     inkscape:pageopacity="0.0"
     inkscape:pageshadow="2"
     inkscape:zoom="1.7944332"
     inkscape:cx="20.103616"
     inkscape:cy="125.854"
     inkscape:document-units="px"
     inkscape:current-layer="layer5"
     showgrid="false"
     inkscape:snap-bbox="false"
     inkscape:object-paths="true"
     inkscape:snap-intersection-paths="true"
     inkscape:object-nodes="true"
     inkscape:snap-smooth-nodes="false"
     inkscape:snap-midpoints="false"
     inkscape:snap-object-midpoints="false"
     inkscape:snap-center="false"
     inkscape:bbox-paths="true"
     inkscape:bbox-nodes="true"
     inkscape:snap-bbox-edge-midpoints="true"
     inkscape:snap-bbox-midpoints="true"
     inkscape:snap-nodes="false"
     inkscape:window-width="1680"
     inkscape:window-height="1028"
     inkscape:window-x="-8"
     inkscape:window-y="-8"
     inkscape:window-maximized="1"
     fit-margin-top="0"
     fit-margin-left="0"
     fit-margin-right="0"
     fit-margin-bottom="0" />
  <defs
     id="defs4">
    <marker
       inkscape:stockid="Arrow1Mend"
       orient="auto"
       refY="0"
       refX="0"
       id="Arrow1Mend"
       style="overflow:visible">
      <path
         id="path4290"
         d="M 0,0 5,-5 -12.5,0 5,5 0,0 z"
         style="fill-rule:evenodd;stroke:#000000;stroke-width:1pt"
         transform="matrix(-0.4,0,0,-0.4,-4,0)"
         inkscape:connector-curvature="0" />
    </marker>
    <marker
       inkscape:stockid="Arrow2Mstart"
       orient="auto"
       refY="0"
       refX="0"
       id="Arrow2Mstart"
       style="overflow:visible">
      <path
         id="path4305"
         style="fill-rule:evenodd;stroke-width:0.625;stroke-linejoin:round"
         d="M 8.7185878,4.0337352 -2.2072895,0.01601326 8.7185884,-4.0017078 c -1.7454984,2.3720609 -1.7354408,5.6174519 -6e-7,8.035443 z"
         transform="scale(0.6,0.6)"
         inkscape:connector-curvature="0" />
    </marker>
    <marker
       inkscape:stockid="Arrow2Lstart"
       orient="auto"
       refY="0"
       refX="0"
       id="Arrow2Lstart"
       style="overflow:visible">
      <path
         id="path4299"
         style="fill-rule:evenodd;stroke-width:0.625;stroke-linejoin:round"
         d="M 8.7185878,4.0337352 -2.2072895,0.01601326 8.7185884,-4.0017078 c -1.7454984,2.3720609 -1.7354408,5.6174519 -6e-7,8.035443 z"
         transform="matrix(1.1,0,0,1.1,1.1,0)"
         inkscape:connector-curvature="0" />
    </marker>
    <marker
       inkscape:stockid="Arrow1Lstart"
       orient="auto"
       refY="0"
       refX="0"
       id="Arrow1Lstart"
       style="overflow:visible">
      <path
         id="path4281"
         d="M 0,0 5,-5 -12.5,0 5,5 0,0 z"
         style="fill-rule:evenodd;stroke:#000000;stroke-width:1pt"
         transform="matrix(0.8,0,0,0.8,10,0)"
         inkscape:connector-curvature="0" />
    </marker>
    <marker
       inkscape:stockid="Arrow2Mstart"
       orient="auto"
       refY="0"
       refX="0"
       id="Arrow2Mstart-1"
       style="overflow:visible">
      <path
         inkscape:connector-curvature="0"
         id="path4305-7"
         style="fill-rule:evenodd;stroke-width:0.625;stroke-linejoin:round"
         d="M 8.7185878,4.0337352 -2.2072895,0.01601326 8.7185884,-4.0017078 c -1.7454984,2.3720609 -1.7354408,5.6174519 -6e-7,8.035443 z"
         transform="scale(0.6,0.6)" />
    </marker>
    <marker
       inkscape:stockid="Arrow2Mstart"
       orient="auto"
       refY="0"
       refX="0"
       id="marker5315"
       style="overflow:visible">
      <path
         inkscape:connector-curvature="0"
         id="path5317"
         style="fill-rule:evenodd;stroke-width:0.625;stroke-linejoin:round"
         d="M 8.7185878,4.0337352 -2.2072895,0.01601326 8.7185884,-4.0017078 c -1.7454984,2.3720609 -1.7354408,5.6174519 -6e-7,8.035443 z"
         transform="scale(0.6,0.6)" />
    </marker>
    <marker
       inkscape:stockid="Arrow2Mstart"
       orient="auto"
       refY="0"
       refX="0"
       id="marker5319"
       style="overflow:visible">
      <path
         inkscape:connector-curvature="0"
         id="path5321"
         style="fill-rule:evenodd;stroke-width:0.625;stroke-linejoin:round"
         d="M 8.7185878,4.0337352 -2.2072895,0.01601326 8.7185884,-4.0017078 c -1.7454984,2.3720609 -1.7354408,5.6174519 -6e-7,8.035443 z"
         transform="scale(0.6,0.6)" />
    </marker>
    <marker
       inkscape:stockid="Arrow2Mstart"
       orient="auto"
       refY="0"
       refX="0"
       id="marker5323"
       style="overflow:visible">
      <path
         inkscape:connector-curvature="0"
         id="path5325"
         style="fill-rule:evenodd;stroke-width:0.625;stroke-linejoin:round"
         d="M 8.7185878,4.0337352 -2.2072895,0.01601326 8.7185884,-4.0017078 c -1.7454984,2.3720609 -1.7354408,5.6174519 -6e-7,8.035443 z"
         transform="scale(0.6,0.6)" />
    </marker>
    <marker
       inkscape:stockid="Arrow2Mstart"
       orient="auto"
       refY="0"
       refX="0"
       id="marker5327"
       style="overflow:visible">
      <path
         inkscape:connector-curvature="0"
         id="path5329"
         style="fill-rule:evenodd;stroke-width:0.625;stroke-linejoin:round"
         d="M 8.7185878,4.0337352 -2.2072895,0.01601326 8.7185884,-4.0017078 c -1.7454984,2.3720609 -1.7354408,5.6174519 -6e-7,8.035443 z"
         transform="scale(0.6,0.6)" />
    </marker>
    <marker
       inkscape:stockid="Arrow2Mstart"
       orient="auto"
       refY="0"
       refX="0"
       id="marker5331"
       style="overflow:visible">
      <path
         inkscape:connector-curvature="0"
         id="path5333"
         style="fill-rule:evenodd;stroke-width:0.625;stroke-linejoin:round"
         d="M 8.7185878,4.0337352 -2.2072895,0.01601326 8.7185884,-4.0017078 c -1.7454984,2.3720609 -1.7354408,5.6174519 -6e-7,8.035443 z"
         transform="scale(0.6,0.6)" />
    </marker>
    <marker
       inkscape:stockid="Arrow2Mstart"
       orient="auto"
       refY="0"
       refX="0"
       id="Arrow2Mstart-4"
       style="overflow:visible">
      <path
         inkscape:connector-curvature="0"
         id="path4305-5"
         style="fill-rule:evenodd;stroke-width:0.625;stroke-linejoin:round"
         d="M 8.7185878,4.0337352 -2.2072895,0.01601326 8.7185884,-4.0017078 c -1.7454984,2.3720609 -1.7354408,5.6174519 -6e-7,8.035443 z"
         transform="scale(0.6,0.6)" />
    </marker>
    <marker
       inkscape:stockid="Arrow2Mstart"
       orient="auto"
       refY="0"
       refX="0"
       id="marker5403"
       style="overflow:visible">
      <path
         inkscape:connector-curvature="0"
         id="path5405"
         style="fill-rule:evenodd;stroke-width:0.625;stroke-linejoin:round"
         d="M 8.7185878,4.0337352 -2.2072895,0.01601326 8.7185884,-4.0017078 c -1.7454984,2.3720609 -1.7354408,5.6174519 -6e-7,8.035443 z"
         transform="scale(0.6,0.6)" />
    </marker>
    <marker
       inkscape:stockid="Arrow2Mstart"
       orient="auto"
       refY="0"
       refX="0"
       id="marker5407"
       style="overflow:visible">
      <path
         inkscape:connector-curvature="0"
         id="path5409"
         style="fill-rule:evenodd;stroke-width:0.625;stroke-linejoin:round"
         d="M 8.7185878,4.0337352 -2.2072895,0.01601326 8.7185884,-4.0017078 c -1.7454984,2.3720609 -1.7354408,5.6174519 -6e-7,8.035443 z"
         transform="scale(0.6,0.6)" />
    </marker>
    <marker
       inkscape:stockid="Arrow2Mstart"
       orient="auto"
       refY="0"
       refX="0"
       id="marker5411"
       style="overflow:visible">
      <path
         inkscape:connector-curvature="0"
         id="path5413"
         style="fill-rule:evenodd;stroke-width:0.625;stroke-linejoin:round"
         d="M 8.7185878,4.0337352 -2.2072895,0.01601326 8.7185884,-4.0017078 c -1.7454984,2.3720609 -1.7354408,5.6174519 -6e-7,8.035443 z"
         transform="scale(0.6,0.6)" />
    </marker>
    <marker
       inkscape:stockid="Arrow2Mstart"
       orient="auto"
       refY="0"
       refX="0"
       id="marker5415"
       style="overflow:visible">
      <path
         inkscape:connector-curvature="0"
         id="path5417"
         style="fill-rule:evenodd;stroke-width:0.625;stroke-linejoin:round"
         d="M 8.7185878,4.0337352 -2.2072895,0.01601326 8.7185884,-4.0017078 c -1.7454984,2.3720609 -1.7354408,5.6174519 -6e-7,8.035443 z"
         transform="scale(0.6,0.6)" />
    </marker>
    <marker
       inkscape:stockid="Arrow2Mstart"
       orient="auto"
       refY="0"
       refX="0"
       id="marker5419"
       style="overflow:visible">
      <path
         inkscape:connector-curvature="0"
         id="path5421"
         style="fill-rule:evenodd;stroke-width:0.625;stroke-linejoin:round"
         d="M 8.7185878,4.0337352 -2.2072895,0.01601326 8.7185884,-4.0017078 c -1.7454984,2.3720609 -1.7354408,5.6174519 -6e-7,8.035443 z"
         transform="scale(0.6,0.6)" />
    </marker>
    <marker
       inkscape:stockid="Arrow2Mstart"
       orient="auto"
       refY="0"
       refX="0"
       id="marker5423"
       style="overflow:visible">
      <path
         inkscape:connector-curvature="0"
         id="path5425"
         style="fill-rule:evenodd;stroke-width:0.625;stroke-linejoin:round"
         d="M 8.7185878,4.0337352 -2.2072895,0.01601326 8.7185884,-4.0017078 c -1.7454984,2.3720609 -1.7354408,5.6174519 -6e-7,8.035443 z"
         transform="scale(0.6,0.6)" />
    </marker>
    <marker
       inkscape:stockid="Arrow2Mstart"
       orient="auto"
       refY="0"
       refX="0"
       id="marker5427"
       style="overflow:visible">
      <path
         inkscape:connector-curvature="0"
         id="path5429"
         style="fill-rule:evenodd;stroke-width:0.625;stroke-linejoin:round"
         d="M 8.7185878,4.0337352 -2.2072895,0.01601326 8.7185884,-4.0017078 c -1.7454984,2.3720609 -1.7354408,5.6174519 -6e-7,8.035443 z"
         transform="scale(0.6,0.6)" />
    </marker>
    <marker
       inkscape:stockid="Arrow2Mstart"
       orient="auto"
       refY="0"
       refX="0"
       id="marker5431"
       style="overflow:visible">
      <path
         inkscape:connector-curvature="0"
         id="path5433"
         style="fill-rule:evenodd;stroke-width:0.625;stroke-linejoin:round"
         d="M 8.7185878,4.0337352 -2.2072895,0.01601326 8.7185884,-4.0017078 c -1.7454984,2.3720609 -1.7354408,5.6174519 -6e-7,8.035443 z"
         transform="scale(0.6,0.6)" />
    </marker>
    <marker
       inkscape:stockid="Arrow2Mstart"
       orient="auto"
       refY="0"
       refX="0"
       id="marker5435"
       style="overflow:visible">
      <path
         inkscape:connector-curvature="0"
         id="path5437"
         style="fill-rule:evenodd;stroke-width:0.625;stroke-linejoin:round"
         d="M 8.7185878,4.0337352 -2.2072895,0.01601326 8.7185884,-4.0017078 c -1.7454984,2.3720609 -1.7354408,5.6174519 -6e-7,8.035443 z"
         transform="scale(0.6,0.6)" />
    </marker>
    <marker
       inkscape:stockid="Arrow2Mstart"
       orient="auto"
       refY="0"
       refX="0"
       id="marker5439"
       style="overflow:visible">
      <path
         inkscape:connector-curvature="0"
         id="path5441"
         style="fill-rule:evenodd;stroke-width:0.625;stroke-linejoin:round"
         d="M 8.7185878,4.0337352 -2.2072895,0.01601326 8.7185884,-4.0017078 c -1.7454984,2.3720609 -1.7354408,5.6174519 -6e-7,8.035443 z"
         transform="scale(0.6,0.6)" />
    </marker>
    <marker
       inkscape:stockid="Arrow2Mstart"
       orient="auto"
       refY="0"
       refX="0"
       id="Arrow2Mstart-16"
       style="overflow:visible">
      <path
         inkscape:connector-curvature="0"
         id="path4305-8"
         style="fill-rule:evenodd;stroke-width:0.625;stroke-linejoin:round"
         d="M 8.7185878,4.0337352 -2.2072895,0.01601326 8.7185884,-4.0017078 c -1.7454984,2.3720609 -1.7354408,5.6174519 -6e-7,8.035443 z"
         transform="scale(0.6,0.6)" />
    </marker>
    <radialGradient
       inkscape:collect="always"
       xlink:href="#linearGradient9642"
       id="radialGradient3200"
       gradientUnits="userSpaceOnUse"
       gradientTransform="matrix(0.02126119,0,0,0.02755039,17.481936,33.251325)"
       cx="97.468246"
       cy="-405.91245"
       fx="97.468246"
       fy="-405.91245"
       r="358.44638" />
    <linearGradient
       inkscape:collect="always"
       id="linearGradient9642">
      <stop
         style="stop-color:#787974;stop-opacity:1;"
         offset="0"
         id="stop9644" />
      <stop
         style="stop-color:#787974;stop-opacity:0;"
         offset="1"
         id="stop9646" />
    </linearGradient>
    <radialGradient
       inkscape:collect="always"
       xlink:href="#linearGradient9642"
       id="radialGradient3188"
       gradientUnits="userSpaceOnUse"
       gradientTransform="matrix(0.02126119,0,0,0.02755039,17.481936,33.251325)"
       cx="97.468246"
       cy="-405.91245"
       fx="97.468246"
       fy="-405.91245"
       r="358.44638" />
    <radialGradient
       inkscape:collect="always"
       xlink:href="#linearGradient9642"
       id="radialGradient3204"
       gradientUnits="userSpaceOnUse"
       gradientTransform="matrix(0.02126119,0,0,0.02755039,17.481936,33.251325)"
       cx="97.468246"
       cy="-405.91245"
       fx="97.468246"
       fy="-405.91245"
       r="358.44638" />
  </defs>
  <metadata
     id="metadata7">
    <rdf:RDF>
      <cc:Work
         rdf:about="">
        <dc:format>image/svg+xml</dc:format>
        <dc:type
           rdf:resource="http://purl.org/dc/dcmitype/StillImage" />
        <dc:title></dc:title>
      </cc:Work>
    </rdf:RDF>
  </metadata>
  <g
     inkscape:groupmode="layer"
     id="layer2"
     inkscape:label="aerosol"
     style="display:none"
     transform="translate(-242.66042,-372.69428)"
     sodipodi:insensitive="true">
    <g
       id="g4083"
       transform="translate(136.78571,-5.7142857)">
      <path
         sodipodi:nodetypes="ccccccccc"
         inkscape:connector-curvature="0"
         id="path3037"
         d="m 288.68669,506.56691 -18.75112,17.26729 -22.07166,7.15235 -12.46293,-7.15235 4.44642,-17.26729 18.75112,-17.2673 22.07167,-7.15235 12.46292,7.15235 -4.44642,17.2673"
         style="fill:#ffffff;fill-opacity:1;stroke:#000000;stroke-width:3;stroke-miterlimit:4;stroke-dashoffset:0" />
      <path
         style="fill:#ffffff;fill-opacity:1;stroke:#000000;stroke-width:3;stroke-miterlimit:4;stroke-dashoffset:0"
         d="m 279.09024,485.60625 -18.75112,17.26729 -22.07166,7.15235 -12.46293,-7.15235 4.44642,-17.26729 18.75112,-17.2673 22.07167,-7.15235 12.46292,7.15235 -4.44642,17.2673"
         id="path3051"
         inkscape:connector-curvature="0"
         sodipodi:nodetypes="ccccccccc" />
      <g
         transform="translate(-88.21956,-7.49559)"
         id="g4075">
        <path
           inkscape:connector-curvature="0"
           style="fill:#333333;fill-opacity:0.3;stroke:#000000;stroke-width:1;stroke-miterlimit:4;stroke-opacity:1;stroke-dasharray:none"
           d="m 371.75,475.84375 -4.4375,17.25 -18.75,17.28125 -22.09375,7.15625 -12.4375,-7.15625 9.59375,20.96875 12.46875,7.15625 22.0625,-7.15625 18.75,-17.28125 4.4375,-17.25 -9.59375,-20.96875 z"
           id="path3247" />
        <path
           style="fill:none;stroke:#000000;stroke-width:1px;stroke-linecap:butt;stroke-linejoin:miter;stroke-opacity:1"
           d="m 348.5625,510.375 9.59375,20.96875"
           id="path3292"
           inkscape:connector-curvature="0" />
        <path
           style="fill:none;stroke:#000000;stroke-width:1px;stroke-linecap:butt;stroke-linejoin:miter;stroke-opacity:1"
           d="m 326.46875,517.53125 9.625,20.96875"
           id="path3294"
           inkscape:connector-curvature="0" />
        <path
           style="fill:#000000;stroke:#000000;stroke-width:1px;stroke-linecap:butt;stroke-linejoin:miter;stroke-opacity:1"
           d="m 367.3125,493.09375 9.59375,20.96875"
           id="path4064"
           inkscape:connector-curvature="0" />
        <path
           style="fill:#ececec;fill-opacity:1;stroke:#000000;stroke-width:0.17857143;stroke-miterlimit:4;stroke-opacity:1;stroke-dasharray:none;stroke-dashoffset:0"
           d="m 329.33416,533.92638 -5.25084,-3.01802 -4.31879,-9.42651 c -2.37534,-5.18458 -4.29765,-9.452 -4.2718,-9.48315 0.0258,-0.0311 2.40179,1.29786 5.27987,2.95337 l 5.23286,3.01001 4.33571,9.44523 c 2.38464,5.19487 4.31503,9.4659 4.28977,9.49116 -0.0253,0.0253 -2.40882,-1.31217 -5.29678,-2.97209 l 0,0 z"
           id="path4069"
           inkscape:connector-curvature="0" />
        <path
           style="fill:#333333;fill-opacity:1;stroke:#000000;stroke-width:0.17857143;stroke-miterlimit:4;stroke-opacity:1;stroke-dasharray:none;stroke-dashoffset:0"
           d="m 372.37586,502.7266 c -2.39807,-5.24952 -4.36012,-9.64339 -4.36012,-9.76417 0,-0.28082 3.85541,-15.29631 3.91231,-15.2371 0.0234,0.0244 2.00962,4.34535 4.4138,9.6022 l 4.37124,9.55791 -1.93632,7.49567 c -1.06498,4.12261 -1.95983,7.5844 -1.98856,7.69287 -0.0287,0.10846 -2.01429,-4.09786 -4.41235,-9.34738 z"
           id="path4073"
           inkscape:connector-curvature="0" />
      </g>
    </g>
  </g>
  <g
     inkscape:groupmode="layer"
     id="layer1"
     inkscape:label="particle"
     sodipodi:insensitive="true">
    <g
       style="display:inline"
       transform="matrix(2.0319027,0,0,2.0319027,101.46815,68.380758)"
       id="g3235">
      <path
         transform="matrix(1.3846828,0,0,1.3846828,101.86952,23.521406)"
         d="m -46.5,0.24999997 a 9.75,9.75 0 1 1 -19.5,0 9.75,9.75 0 1 1 19.5,0 z"
         sodipodi:ry="9.75"
         sodipodi:rx="9.75"
         sodipodi:cy="0.24999997"
         sodipodi:cx="-56.25"
         id="path7596"
         style="fill:#999999;fill-opacity:1;stroke:none"
         sodipodi:type="arc" />
      <path
         inkscape:connector-curvature="0"
         id="path7602"
         d="m 17.440019,20.422544 c -0.384489,0.09238 -1.151229,0.224068 -1.673778,0.119555 -0.400338,-0.0801 -0.413671,-0.303665 -0.797031,0.0797 -0.02656,0.02657 -0.05313,0.05313 -0.0797,0.0797 -0.242015,0.242014 -0.278956,0.278227 -0.278956,0.637628 0,0.235993 0.004,0.4605 -0.03985,0.677477 -0.04664,0.233076 -0.01149,0.591489 0.03985,0.797031 0.0783,0.313312 0.127753,0.534473 0.278956,0.836889 0.120753,0.241495 0.177019,0.431647 0.39852,0.597781 0.287625,0.215709 0.683519,0.273403 0.996302,0.39851 0.220542,0.08819 0.58997,0.03985 0.836878,0.03985 0.313232,0 0.358673,0.03545 0.358673,0.398511 0,0.311613 -0.584898,0.749003 -0.757183,1.036149 -0.190641,0.317726 -0.117657,0.563625 0,0.916595 0.08769,0.263127 0.144611,0.523817 0.19925,0.797031 0.05693,0.284799 0.131259,0.489921 0.358673,0.717335 0.241874,0.241884 0.688053,-0.02577 0.916585,0.278966 0.11488,0.15316 0.119564,0.40672 0.119564,0.597771 0,0.316857 0.102376,0.466881 0.39851,0.318814 0.269579,-0.134784 0.471985,-0.124508 0.677487,-0.39852 0.195665,-0.26089 0.293697,-0.587405 0.438369,-0.876737 0.129011,-0.258034 0.349554,-0.278957 0.637628,-0.278957 0.266293,0 0.480174,0.06921 0.757183,0 0.405841,-0.101467 0.46771,-0.228602 0.757173,-0.518074 0.366193,-0.366193 0.322729,-0.62118 0.39852,-1.075998 0.03416,-0.205182 -0.03376,-0.454058 -0.0797,-0.637628 -0.01328,-0.05313 -0.02656,-0.106272 -0.03985,-0.159412 -0.05553,-0.222141 -0.543072,-0.239109 -0.717325,-0.239109 -0.385167,0 -0.956403,-0.189283 -1.315115,-0.278966 -0.183191,-0.04574 -0.691169,-0.651311 -0.836879,-0.797031 -0.210625,-0.210615 -0.252081,-0.370677 -0.318814,-0.637629 -0.08219,-0.328881 -0.03835,-0.671384 -0.119554,-0.996291 -0.09308,-0.372444 0.01588,-0.581941 -0.278967,-0.876737 -0.208718,-0.208728 -0.346288,-0.496063 -0.39852,-0.757193 -0.05034,-0.251931 -0.286796,-0.533914 -0.478217,-0.677476 -0.140027,-0.105014 -0.156586,-0.0791 -0.358662,-0.119555 z"
         style="opacity:0.18888885;fill:#333333;fill-opacity:1;fill-rule:evenodd;stroke:none" />
      <path
         inkscape:connector-curvature="0"
         id="path7604"
         d="m 35.096302,19.71704 c -0.206591,0.007 -0.418005,0.258593 -0.597781,0.438369 -0.176689,0.176689 -0.119554,0.479474 -0.119554,0.717324 0,0.260231 0.05593,0.542593 0.119554,0.797041 0.05393,0.215829 0.252671,0.491779 0.398521,0.637629 0.219793,0.219793 0.501106,0.349195 0.797031,0.39851 0.387564,0.06462 0.601066,0.111345 0.757192,-0.278956 0.107231,-0.26807 0.159403,-0.45243 0.159403,-0.757183 0,-0.27589 -0.01238,-0.487874 -0.0797,-0.757183 -0.08139,-0.325425 -0.186107,-0.491569 -0.478216,-0.637628 -0.20702,-0.103505 -0.417795,-0.343233 -0.597781,-0.478227 -0.103255,-0.0774 -0.235563,-0.0797 -0.358662,-0.0797 z"
         style="opacity:0.18333327;fill:#787974;fill-opacity:1;fill-rule:evenodd;stroke:none" />
      <path
         inkscape:connector-curvature="0"
         id="path7608"
         d="m 34.139859,23.3834 c 0.0799,0.08499 0.159412,0.376779 0.159412,0.637629 0,0.106132 -0.658971,0.619103 -0.757193,0.717335 -0.19172,0.19171 -0.23039,0.514289 -0.278956,0.757173 -0.06262,0.312912 -0.141096,0.529979 -0.0797,0.836889 0.05203,0.26012 0.159961,0.519193 0.278956,0.757182 0.143193,0.286367 0.350783,0.430479 0.597781,0.677487 0.275131,0.275131 0.614828,0.273264 0.956433,0.358663 0.434254,0.108558 -0.258044,0.522319 -0.358663,0.59778 -0.267581,0.200689 -0.528411,0.259792 -0.677476,0.557923 -0.172675,0.34535 0.184519,0.472324 0.39852,0.557923 0.241585,0.09667 0.60589,-0.329631 0.717335,-0.478227 0.150454,-0.200608 0.39852,-0.426564 0.39852,-0.677477 0,-0.246648 0.119544,-0.507598 0.119544,-0.797031 0,-0.269938 0.06132,-0.564044 0.119555,-0.797041 0.08878,-0.354947 0.216967,-0.495913 0.438368,-0.717324 0.178407,-0.178398 0.173943,-0.619393 0.119564,-0.836889 C 36.229539,25.28598 36.073134,25.059036 36.012893,24.81806 35.951473,24.57232 35.651344,24.428787 35.45497,24.379691 35.219018,24.320671 34.888229,23.892656 34.737635,23.742063 34.5303,23.534723 34.438529,23.3834 34.139869,23.3834 z"
         style="opacity:0.11666661;fill:#787974;fill-opacity:1;fill-rule:evenodd;stroke:none" />
      <path
         inkscape:connector-curvature="0"
         id="path7610"
         d="m 16.804259,22.347281 c -0.009,-0.009 0.02657,0 0,0 z"
         style="fill:none;stroke:#000000;stroke-width:1.00000203px;stroke-linecap:butt;stroke-linejoin:miter;stroke-opacity:1" />
      <path
         inkscape:connector-curvature="0"
         id="path7612"
         d="m 21.706109,12.703124 c 0.171706,-0.04254 0.570915,-0.172615 0.836879,-0.239108 0.339896,-0.08499 0.696531,0.119554 1.036149,0.119554 0.03446,0 0.254937,0.438368 0.637628,0.438368 0.05313,0 0.106272,0 0.159413,0 0.241325,0 0.511063,0.19225 0.677476,0.358673 0.160701,0.16069 0.01358,0.54437 -0.0797,0.637629 -0.253849,0.253839 -0.480943,0.077 -0.677476,-0.119565 -0.210256,-0.210255 -0.320563,-0.289362 -0.597781,-0.358662 -0.275271,-0.06881 -0.569428,-0.02707 -0.836879,0.03985 -0.326614,0.08169 -0.541225,0.159402 -0.916595,0.159402 -0.125457,0 -0.511433,-0.54465 -0.557933,-0.637628 -0.08199,-0.163977 0.218465,-0.373424 0.318825,-0.398521 z"
         style="opacity:0.2;fill:#938f8b;fill-opacity:1;fill-rule:evenodd;stroke:none" />
      <path
         inkscape:connector-curvature="0"
         id="path7614"
         d="m 26.528172,13.380611 c 0.197273,0.05113 0.639606,0.03935 0.956433,-0.03985 0.351162,-0.08779 0.907098,-0.131888 1.275268,-0.03985 0.223069,0.05573 1.585203,0.323248 0.956433,0.637628 -0.311085,0.155548 -0.640385,0.192939 -0.916585,0.358663 -0.332517,0.19951 0.401766,0.278966 0.557922,0.278966 0.423668,0 0.180205,0.509975 0.0797,0.677477 -0.156725,0.261199 -0.05033,0.665003 0,0.916595 0.05703,0.284958 0.546808,0.239108 0.797031,0.239108 0.342773,0 0.631068,0.04434 0.836889,0.318815 0.182013,0.242683 0.434094,0.486765 0.318815,0.717334 -0.118736,0.237471 -0.720471,0.278957 -0.916585,0.278957 -0.151373,0 -0.749413,-0.761907 -0.836899,-0.836889 -0.23017,-0.197293 -0.49921,-0.01468 -0.717315,0.03985 -0.388334,0.09707 -0.6752,-0.396613 -0.916605,-0.597781 -0.2612,-0.217666 -0.424597,-0.530388 -0.557923,-0.797031 -0.16867,-0.33734 0.103715,-0.478226 -0.39851,-0.478226 -0.311894,0 -0.482511,-0.06302 -0.717345,-0.239109 -0.318864,-0.239148 -0.557913,-0.146698 -0.557913,-0.59778 0,-0.398161 0.02167,-0.515129 0.358663,-0.717325 0.108129,-0.06492 0.253619,-0.03266 0.39852,-0.119554 z"
         style="opacity:0.28888891;fill:#1a1a1a;fill-opacity:1;fill-rule:evenodd;stroke:none" />
      <path
         transform="matrix(0.02126119,0,0,0.02126119,39.240869,10.613239)"
         d="m -824.73115,649.36853 a 31.864613,31.864613 0 1 1 -63.72923,0 31.864613,31.864613 0 1 1 63.72923,0 z"
         sodipodi:ry="31.864613"
         sodipodi:rx="31.864613"
         sodipodi:cy="649.36853"
         sodipodi:cx="-856.59576"
         id="path7618"
         style="opacity:0.61666667;fill:#ffffff;fill-opacity:1;stroke:none"
         sodipodi:type="arc" />
      <path
         transform="matrix(0.01125594,0,0,0.01125594,24.493395,11.730382)"
         d="m -824.73115,649.36853 a 31.864613,31.864613 0 1 1 -63.72923,0 31.864613,31.864613 0 1 1 63.72923,0 z"
         sodipodi:ry="31.864613"
         sodipodi:rx="31.864613"
         sodipodi:cy="649.36853"
         sodipodi:cx="-856.59576"
         id="path7620"
         style="opacity:0.54444442;fill:#ffffff;fill-opacity:1;stroke:none"
         sodipodi:type="arc" />
      <path
         transform="matrix(0.02126119,0,0,0.02126119,49.00464,9.8560258)"
         d="m -824.73115,649.36853 a 31.864613,31.864613 0 1 1 -63.72923,0 31.864613,31.864613 0 1 1 63.72923,0 z"
         sodipodi:ry="31.864613"
         sodipodi:rx="31.864613"
         sodipodi:cy="649.36853"
         sodipodi:cx="-856.59576"
         id="path7622"
         style="opacity:0.54444442;fill:#c2c3be;fill-opacity:1;stroke:none"
         sodipodi:type="arc" />
      <path
         transform="matrix(0.02126119,0,0,0.02126119,43.90359,20.058125)"
         d="m -824.73115,649.36853 a 31.864613,31.864613 0 1 1 -63.72923,0 31.864613,31.864613 0 1 1 63.72923,0 z"
         sodipodi:ry="31.864613"
         sodipodi:rx="31.864613"
         sodipodi:cy="649.36853"
         sodipodi:cx="-856.59576"
         id="path7624"
         style="opacity:0.56666667;fill:#c2c3be;fill-opacity:1;stroke:none"
         sodipodi:type="arc" />
      <path
         transform="matrix(0.01375725,0,0,0.01375725,41.939151,14.888265)"
         d="m -824.73115,649.36853 a 31.864613,31.864613 0 1 1 -63.72923,0 31.864613,31.864613 0 1 1 63.72923,0 z"
         sodipodi:ry="31.864613"
         sodipodi:rx="31.864613"
         sodipodi:cy="649.36853"
         sodipodi:cx="-856.59576"
         id="path7626"
         style="opacity:0.61666667;fill:#ffffff;fill-opacity:1;stroke:none"
         sodipodi:type="arc" />
      <path
         transform="matrix(0.01125594,0,0,0.01125594,31.587047,27.033432)"
         d="m -824.73115,649.36853 a 31.864613,31.864613 0 1 1 -63.72923,0 31.864613,31.864613 0 1 1 63.72923,0 z"
         sodipodi:ry="31.864613"
         sodipodi:rx="31.864613"
         sodipodi:cy="649.36853"
         sodipodi:cx="-856.59576"
         id="path7628"
         style="opacity:0.61666667;fill:#ffffff;fill-opacity:1;stroke:none"
         sodipodi:type="arc" />
      <path
         transform="matrix(0.01375725,0,0,0.01375725,40.265433,20.786376)"
         d="m -824.73115,649.36853 a 31.864613,31.864613 0 1 1 -63.72923,0 31.864613,31.864613 0 1 1 63.72923,0 z"
         sodipodi:ry="31.864613"
         sodipodi:rx="31.864613"
         sodipodi:cy="649.36853"
         sodipodi:cx="-856.59576"
         id="path7630"
         style="opacity:0.61666667;fill:#ffffff;fill-opacity:1;stroke:none"
         sodipodi:type="arc" />
      <path
         transform="matrix(0.01375725,0,0,0.01375725,45.446079,9.388735)"
         d="m -824.73115,649.36853 a 31.864613,31.864613 0 1 1 -63.72923,0 31.864613,31.864613 0 1 1 63.72923,0 z"
         sodipodi:ry="31.864613"
         sodipodi:rx="31.864613"
         sodipodi:cy="649.36853"
         sodipodi:cx="-856.59576"
         id="path7632"
         style="opacity:0.61666667;fill:#ffffff;fill-opacity:1;stroke:none"
         sodipodi:type="arc" />
      <path
         transform="matrix(0.01375725,0,0,0.01375725,42.417327,10.185796)"
         d="m -824.73115,649.36853 a 31.864613,31.864613 0 1 1 -63.72923,0 31.864613,31.864613 0 1 1 63.72923,0 z"
         sodipodi:ry="31.864613"
         sodipodi:rx="31.864613"
         sodipodi:cy="649.36853"
         sodipodi:cx="-856.59576"
         id="path7634"
         style="opacity:0.61666667;fill:#ffffff;fill-opacity:1;stroke:none"
         sodipodi:type="arc" />
      <path
         transform="matrix(0.01375725,0,0,0.01375725,43.612969,5.7223149)"
         d="m -824.73115,649.36853 a 31.864613,31.864613 0 1 1 -63.72923,0 31.864613,31.864613 0 1 1 63.72923,0 z"
         sodipodi:ry="31.864613"
         sodipodi:rx="31.864613"
         sodipodi:cy="649.36853"
         sodipodi:cx="-856.59576"
         id="path7636"
         style="opacity:0.61666667;fill:#ffffff;fill-opacity:1;stroke:none"
         sodipodi:type="arc" />
      <path
         transform="matrix(0.01375725,0,0,0.01375725,34.765803,18.953166)"
         d="m -824.73115,649.36853 a 31.864613,31.864613 0 1 1 -63.72923,0 31.864613,31.864613 0 1 1 63.72923,0 z"
         sodipodi:ry="31.864613"
         sodipodi:rx="31.864613"
         sodipodi:cy="649.36853"
         sodipodi:cx="-856.59576"
         id="path7638"
         style="opacity:0.61666667;fill:#ffffff;fill-opacity:1;stroke:none"
         sodipodi:type="arc" />
      <path
         transform="matrix(0.998698,0,0,0.998698,184.8058,-35.812336)"
         d="m -161.83907,69.52256 a 0.66291261,0.66291261 0 1 1 -1.32583,0 0.66291261,0.66291261 0 1 1 1.32583,0 z"
         sodipodi:ry="0.66291261"
         sodipodi:rx="0.66291261"
         sodipodi:cy="69.52256"
         sodipodi:cx="-162.50198"
         id="path7659"
         style="fill:#ffffff;fill-opacity:1;stroke:none"
         sodipodi:type="arc" />
      <path
         transform="matrix(0.81386726,-1.1251324,1.1101274,0.82487077,69.452724,2.4226569)"
         d="m -22.5,-17.5 a 9.5,9.5 0 1 1 -19,0 9.5,9.5 0 1 1 19,0 z"
         sodipodi:ry="9.5"
         sodipodi:rx="9.5"
         sodipodi:cy="-17.5"
         sodipodi:cx="-32"
         id="path7663"
         style="fill:none;stroke:#333333;stroke-width:0.76089418;stroke-linecap:square;stroke-linejoin:miter;stroke-miterlimit:4;stroke-opacity:1;stroke-dasharray:none"
         sodipodi:type="arc" />
    </g>
  </g>
  <g
     inkscape:groupmode="layer"
     id="layer4"
     inkscape:label="light"
     style="display:inline"
     transform="translate(-242.66042,-372.69428)"
     sodipodi:insensitive="true">
    <path
       inkscape:connector-curvature="0"
       id="path4905-4"
       d="m 355.51944,489.86218 -108.07808,0"
       style="fill:none;stroke:#000000;stroke-width:4;stroke-linecap:butt;stroke-linejoin:miter;stroke-miterlimit:4;stroke-opacity:1;stroke-dasharray:none;marker-start:url(#Arrow2Mstart);marker-mid:none"
       sodipodi:nodetypes="cc" />
  </g>
  <g
     inkscape:groupmode="layer"
     id="layer6"
     inkscape:label="light text"
     style="display:none"
     sodipodi:insensitive="true">
    <flowRoot
       xml:space="preserve"
       id="flowRoot6529"
       style="font-size:12px;font-style:normal;font-weight:normal;line-height:125%;letter-spacing:0px;word-spacing:0px;fill:#000000;fill-opacity:1;stroke:none;display:inline;font-family:Sans"
       transform="translate(-10.88545,13.3747)"><flowRegion
         id="flowRegion6531"><rect
           id="rect6533"
           width="94.737442"
           height="30.093069"
           x="20.619326"
           y="83.313225" /></flowRegion><flowPara
         id="flowPara6535">Light Ray</flowPara></flowRoot>  </g>
  <g
     inkscape:groupmode="layer"
     id="layer3"
     inkscape:label="scatter"
     style="display:none"
     transform="translate(-242.66042,-372.69428)"
     sodipodi:insensitive="true">
    <g
       id="g5646">
      <path
         style="fill:none;stroke:#000000;stroke-width:2;stroke-linecap:butt;stroke-linejoin:miter;stroke-miterlimit:4;stroke-opacity:1;stroke-dasharray:none;marker-start:url(#Arrow2Mstart);marker-mid:none"
         d="m 313.03852,437.03313 79.81862,52.82905"
         id="path5287"
         inkscape:connector-curvature="0"
         sodipodi:nodetypes="cc" />
      <path
         sodipodi:nodetypes="cc"
         inkscape:connector-curvature="0"
         id="path5283"
         d="m 295.5518,459.89286 97.30534,29.96932"
         style="fill:none;stroke:#000000;stroke-width:2;stroke-linecap:butt;stroke-linejoin:miter;stroke-miterlimit:4;stroke-opacity:1;stroke-dasharray:none;marker-start:url(#Arrow2Mstart);marker-mid:none" />
      <path
         sodipodi:nodetypes="cc"
         style="fill:none;stroke:#000000;stroke-width:2;stroke-linecap:butt;stroke-linejoin:miter;stroke-miterlimit:4;stroke-opacity:1;stroke-dasharray:none;marker-start:url(#Arrow2Mstart);marker-mid:none"
         d="m 291.07143,489.86218 101.78571,0"
         id="path4905"
         inkscape:connector-curvature="0" />
      <path
         style="fill:none;stroke:#000000;stroke-width:2;stroke-linecap:butt;stroke-linejoin:miter;stroke-miterlimit:4;stroke-opacity:1;stroke-dasharray:none;marker-start:url(#Arrow2Mstart);marker-mid:none"
         d="m 393.85714,432.78895 0,56.07323"
         id="path4907"
         inkscape:connector-curvature="0"
         sodipodi:nodetypes="cc" />
      <path
         sodipodi:nodetypes="cc"
         inkscape:connector-curvature="0"
         id="path4095"
         d="m 367.21012,428.58229 25.64702,61.27989"
         style="fill:none;stroke:#000000;stroke-width:2;stroke-linecap:butt;stroke-linejoin:miter;stroke-miterlimit:4;stroke-opacity:1;stroke-dasharray:none;marker-start:url(#Arrow2Mstart);marker-mid:none" />
      <path
         style="fill:none;stroke:#000000;stroke-width:2;stroke-linecap:butt;stroke-linejoin:miter;stroke-miterlimit:4;stroke-opacity:1;stroke-dasharray:none;marker-start:url(#Arrow2Mstart);marker-mid:none"
         d="m 338.79741,429.70952 54.05973,60.15266"
         id="path5285"
         inkscape:connector-curvature="0"
         sodipodi:nodetypes="cc" />
      <path
         style="fill:none;stroke:#000000;stroke-width:2;stroke-linecap:butt;stroke-linejoin:miter;stroke-miterlimit:4;stroke-opacity:1;stroke-dasharray:none;marker-start:url(#Arrow2Mstart);marker-mid:none"
         d="m 472.67576,437.03313 -79.81862,52.82905"
         id="path5287-0"
         inkscape:connector-curvature="0"
         sodipodi:nodetypes="cc" />
      <path
         sodipodi:nodetypes="cc"
         inkscape:connector-curvature="0"
         id="path5283-9"
         d="m 490.16248,459.89286 -97.30534,29.96932"
         style="fill:none;stroke:#000000;stroke-width:2;stroke-linecap:butt;stroke-linejoin:miter;stroke-miterlimit:4;stroke-opacity:1;stroke-dasharray:none;marker-start:url(#Arrow2Mstart);marker-mid:none" />
      <path
         inkscape:connector-curvature="0"
         id="path5602"
         d="m 494.64285,489.86218 -101.78571,0"
         style="fill:none;stroke:#000000;stroke-width:2;stroke-linecap:butt;stroke-linejoin:miter;stroke-miterlimit:4;stroke-opacity:1;stroke-dasharray:none;marker-start:url(#Arrow2Mstart);marker-mid:none"
         sodipodi:nodetypes="cc" />
      <path
         sodipodi:nodetypes="cc"
         inkscape:connector-curvature="0"
         id="path4095-8"
         d="m 418.50416,428.58229 -25.64702,61.27989"
         style="fill:none;stroke:#000000;stroke-width:2;stroke-linecap:butt;stroke-linejoin:miter;stroke-miterlimit:4;stroke-opacity:1;stroke-dasharray:none;marker-start:url(#Arrow2Mstart);marker-mid:none" />
      <path
         style="fill:none;stroke:#000000;stroke-width:2;stroke-linecap:butt;stroke-linejoin:miter;stroke-miterlimit:4;stroke-opacity:1;stroke-dasharray:none;marker-start:url(#Arrow2Mstart);marker-mid:none"
         d="m 446.91687,429.70952 -54.05973,60.15266"
         id="path5285-2"
         inkscape:connector-curvature="0"
         sodipodi:nodetypes="cc" />
      <path
         style="fill:none;stroke:#000000;stroke-width:2;stroke-linecap:butt;stroke-linejoin:miter;stroke-miterlimit:4;stroke-opacity:1;stroke-dasharray:none;marker-start:url(#Arrow2Mstart);marker-mid:none"
         d="m 313.03852,542.69127 79.81862,-52.82905"
         id="path5287-1"
         inkscape:connector-curvature="0"
         sodipodi:nodetypes="cc" />
      <path
         sodipodi:nodetypes="cc"
         inkscape:connector-curvature="0"
         id="path5283-7"
         d="m 295.5518,519.83154 97.30534,-29.96932"
         style="fill:none;stroke:#000000;stroke-width:2;stroke-linecap:butt;stroke-linejoin:miter;stroke-miterlimit:4;stroke-opacity:1;stroke-dasharray:none;marker-start:url(#Arrow2Mstart);marker-mid:none" />
      <path
         style="fill:none;stroke:#000000;stroke-width:2;stroke-linecap:butt;stroke-linejoin:miter;stroke-miterlimit:4;stroke-opacity:1;stroke-dasharray:none;marker-start:url(#Arrow2Mstart);marker-mid:none"
         d="m 393.85714,546.93545 0,-56.07323"
         id="path4907-1"
         inkscape:connector-curvature="0"
         sodipodi:nodetypes="cc" />
      <path
         sodipodi:nodetypes="cc"
         inkscape:connector-curvature="0"
         id="path4095-5"
         d="m 367.21012,551.14211 25.64702,-61.27989"
         style="fill:none;stroke:#000000;stroke-width:2;stroke-linecap:butt;stroke-linejoin:miter;stroke-miterlimit:4;stroke-opacity:1;stroke-dasharray:none;marker-start:url(#Arrow2Mstart);marker-mid:none" />
      <path
         style="fill:none;stroke:#000000;stroke-width:2;stroke-linecap:butt;stroke-linejoin:miter;stroke-miterlimit:4;stroke-opacity:1;stroke-dasharray:none;marker-start:url(#Arrow2Mstart);marker-mid:none"
         d="m 338.79741,550.01488 54.05973,-60.15266"
         id="path5285-27"
         inkscape:connector-curvature="0"
         sodipodi:nodetypes="cc" />
      <path
         style="fill:none;stroke:#000000;stroke-width:2;stroke-linecap:butt;stroke-linejoin:miter;stroke-miterlimit:4;stroke-opacity:1;stroke-dasharray:none;marker-start:url(#Arrow2Mstart);marker-mid:none"
         d="M 472.67576,542.69123 392.85714,489.86218"
         id="path5287-0-6"
         inkscape:connector-curvature="0"
         sodipodi:nodetypes="cc" />
      <path
         sodipodi:nodetypes="cc"
         inkscape:connector-curvature="0"
         id="path5283-9-1"
         d="M 490.16248,519.8315 392.85714,489.86218"
         style="fill:none;stroke:#000000;stroke-width:2;stroke-linecap:butt;stroke-linejoin:miter;stroke-miterlimit:4;stroke-opacity:1;stroke-dasharray:none;marker-start:url(#Arrow2Mstart);marker-mid:none" />
      <path
         sodipodi:nodetypes="cc"
         inkscape:connector-curvature="0"
         id="path4095-8-2"
         d="M 418.50416,551.14207 392.85714,489.86218"
         style="fill:none;stroke:#000000;stroke-width:2;stroke-linecap:butt;stroke-linejoin:miter;stroke-miterlimit:4;stroke-opacity:1;stroke-dasharray:none;marker-start:url(#Arrow2Mstart);marker-mid:none" />
      <path
         style="fill:none;stroke:#000000;stroke-width:2;stroke-linecap:butt;stroke-linejoin:miter;stroke-miterlimit:4;stroke-opacity:1;stroke-dasharray:none;marker-start:url(#Arrow2Mstart);marker-mid:none"
         d="M 446.91687,550.01484 392.85714,489.86218"
         id="path5285-2-3"
         inkscape:connector-curvature="0"
         sodipodi:nodetypes="cc" />
    </g>
  </g>
  <g
     inkscape:groupmode="layer"
     id="layer5"
     inkscape:label="function"
     transform="translate(-242.66042,-372.69428)"
     style="display:inline"
     sodipodi:insensitive="true">
    <path
       style="fill:none;stroke:#000000;stroke-width:1.69655323;stroke-miterlimit:4;stroke-opacity:1;stroke-dashoffset:0"
       d="m 498.82742,489.74277 c 0,27.6644 -11.86112,52.7098 -31.03797,70.83911 -19.17685,18.12932 -45.66942,-10.22501 -74.93231,-10.22501 -29.26288,0 -55.75544,28.35433 -74.93231,10.22501 -19.17685,-18.12931 -31.03797,-43.17471 -31.03797,-70.83911 0,-27.66438 11.86112,-52.70979 31.03797,-70.8391 19.17687,-18.12931 45.66943,11.90875 74.93231,11.90875 29.26289,0 55.75546,-30.03806 74.93231,-11.90875 19.17685,18.12931 31.03797,43.17472 31.03797,70.8391 z"
       id="path5643"
       inkscape:connector-curvature="0"
       sodipodi:nodetypes="sssssssss" />
    <path
       style="fill:none;stroke:#000000;stroke-width:1px;stroke-linecap:butt;stroke-linejoin:miter;stroke-opacity:1;marker-end:url(#Arrow1Mend)"
       d="m 248.65786,489.8622 288.39856,0"
       id="path5669"
       inkscape:connector-curvature="0" />
    <path
       style="fill:none;stroke:#000000;stroke-width:0.89967889px;stroke-linecap:butt;stroke-linejoin:miter;stroke-opacity:1"
       d="m 392.85714,606.58028 0,-233.43616"
       id="path5669-7"
       inkscape:connector-curvature="0" />
    <flowRoot
       xml:space="preserve"
       id="flowRoot6384"
       style="font-size:12px;font-style:normal;font-weight:normal;line-height:125%;letter-spacing:0px;word-spacing:0px;fill:#000000;fill-opacity:1;stroke:none;font-family:Sans"
       transform="translate(13.928571,-36.857143)"><flowRegion
         id="flowRegion6386"><rect
           id="rect6388"
           width="41.416256"
           height="57.07362"
           x="518.20825"
           y="507.88995"
           style="font-size:12px" /></flowRegion><flowPara
         id="flowPara6390">0</flowPara></flowRoot>    <flowRoot
       xml:space="preserve"
       id="flowRoot6384-6"
       style="font-size:12px;font-style:normal;font-weight:normal;line-height:125%;letter-spacing:0px;word-spacing:0px;fill:#000000;fill-opacity:1;stroke:none;font-family:Sans"
       transform="translate(-149.19514,-135.07219)"><flowRegion
         id="flowRegion6386-1"><rect
           id="rect6388-8"
           width="41.416256"
           height="57.07362"
           x="518.20825"
           y="507.88995"
           style="font-size:12px" /></flowRegion><flowPara
         id="flowPara6390-9">90</flowPara></flowRoot>    <flowRoot
       xml:space="preserve"
       id="flowRoot6384-6-2"
       style="font-size:12px;font-style:normal;font-weight:normal;line-height:125%;letter-spacing:0px;word-spacing:0px;fill:#000000;fill-opacity:1;stroke:none;font-family:Sans"
       transform="translate(-276.86497,-36.541706)"><flowRegion
         id="flowRegion6386-1-7"><rect
           id="rect6388-8-9"
           width="41.416256"
           height="57.07362"
           x="518.20825"
           y="507.88995"
           style="font-size:12px" /></flowRegion><flowPara
         id="flowPara6450">180</flowPara></flowRoot>    <flowRoot
       xml:space="preserve"
       id="flowRoot6384-6-2-4"
       style="font-size:12px;font-style:normal;font-weight:normal;line-height:125%;letter-spacing:0px;word-spacing:0px;fill:#000000;fill-opacity:1;stroke:none;font-family:Sans"
       transform="translate(-160.7842,87.161375)"><flowRegion
         id="flowRegion6386-1-7-3"><rect
           id="rect6388-8-9-1"
           width="41.416256"
           height="57.07362"
           x="518.20825"
           y="507.88995"
           style="font-size:12px" /></flowRegion><flowPara
         id="flowPara6495">270</flowPara></flowRoot>    <path
       style="fill:none;stroke:#000000;stroke-width:1px;stroke-linecap:butt;stroke-linejoin:miter;stroke-opacity:1"
       d="M 150.19672,117.16792 259.64286,45.407274"
       id="path6501"
       inkscape:connector-curvature="0"
       transform="translate(242.66042,372.69428)" />
    <path
       style="fill:none;stroke:#000000;stroke-width:1px;stroke-linecap:butt;stroke-linejoin:miter;stroke-opacity:1"
       d="M 267.14286,117.16792 C 266.6324,88.471207 258.0616,68.986305 244.23146,55.512081"
       id="path6503"
       inkscape:connector-curvature="0"
       transform="translate(242.66042,372.69428)"
       sodipodi:nodetypes="cc" />
    <flowRoot
       xml:space="preserve"
       id="flowRoot6505"
       style="font-size:12px;font-style:normal;font-weight:normal;line-height:125%;letter-spacing:0px;word-spacing:0px;fill:#000000;fill-opacity:1;stroke:none;font-family:Sans"
       transform="translate(242.66042,372.69428)"><flowRegion
         id="flowRegion6507"><rect
           id="rect6509"
           width="65"
           height="46.07143"
           x="321.07144"
           y="50.407272"
           style="font-size:12px" /></flowRegion><flowPara
         id="flowPara6511" /></flowRoot>    <flowRoot
       xml:space="preserve"
       id="flowRoot6513"
       style="font-size:12px;font-style:normal;font-weight:normal;line-height:125%;letter-spacing:0px;word-spacing:0px;fill:#000000;fill-opacity:1;stroke:none;font-family:Sans"
       transform="translate(242.66042,372.69428)"><flowRegion
         id="flowRegion6515"><rect
           id="rect6517"
           width="60.357143"
           height="51.42857"
           x="333.92856"
           y="4.3358455"
           style="font-size:12px" /></flowRegion><flowPara
         id="flowPara6519" /></flowRoot>    <flowRoot
       xml:space="preserve"
       id="flowRoot6521"
       style="font-size:12px;font-style:normal;font-weight:normal;line-height:125%;letter-spacing:0px;word-spacing:0px;fill:#000000;fill-opacity:1;stroke:none;font-family:Sans"
       transform="translate(151.42828,421.41365)"><flowRegion
         id="flowRegion6523"><rect
           id="rect6525"
           width="58.514301"
           height="118.70044"
           x="358.8877"
           y="27.58532"
           style="font-size:12px" /></flowRegion><flowPara
         id="flowPara6527">$\theta$</flowPara></flowRoot>    <flowRoot
       xml:space="preserve"
       id="flowRoot6529-1"
       style="font-size:12px;font-style:normal;font-weight:normal;line-height:125%;letter-spacing:0px;word-spacing:0px;fill:#000000;fill-opacity:1;stroke:none;display:inline;font-family:Sans"
       transform="translate(379.63413,494.43181)"><flowRegion
         id="flowRegion6531-7"><rect
           id="rect6533-4"
           width="214.55243"
           height="35.108582"
           x="20.619326"
           y="83.313225" /></flowRegion><flowPara
         id="flowPara6535-0">$P(\theta)$ - Phase Function</flowPara></flowRoot>  </g>
</svg>
